PathFileType	4	(X/Y/Z)	Patient4_TMGait_0pt4_03_left_16.trc.trc
DataRate	CameraRate	NumFrames	NumMarkers	Units	OrigDataRate	OrigDataStartFrame	OrigNumFrames
74.468085106383	74.468085106383	4	33	mm	74.468085106383	71	       141
Frame#	Time	Sacral			L.Shoulder			Chest			R.Shoulder			Neck			R.ASIS			L.ASIS			R.Thigh.Superior			R.Thigh.Lateral			R.Thigh.Inferior			R.Patella			L.Thigh.Superior			L.Thigh.Lateral			L.Thigh.Inferior			L.Patella			L.Shank.Superior			L.Shank.Lateral			L.Shank.Inferior			R.Shank.Superior			R.Shank.Lateral			R.Shank.Inferior			R.Heel			R.Midfoot.Superior			R.Midfoot.Lateral			R.Toe			L.Heel			L.Midfoot.Lateral			L.Midfoot.Superior			L.Toe			L.Elbow			L.Wrist			R.Elbow			R.Wrist			
		X1	Y1	Z1	X2	Y2	Z2	X3	Y3	Z3	X4	Y4	Z4	X5	Y5	Z5	X6	Y6	Z6	X7	Y7	Z7	X8	Y8	Z8	X9	Y9	Z9	X10	Y10	Z10	X11	Y11	Z11	X12	Y12	Z12	X13	Y13	Z13	X14	Y14	Z14	X15	Y15	Z15	X16	Y16	Z16	X17	Y17	Z17	X18	Y18	Z18	X19	Y19	Z19	X20	Y20	Z20	X21	Y21	Z21	X22	Y22	Z22	X23	Y23	Z23	X24	Y24	Z24	X25	Y25	Z25	X26	Y26	Z26	X27	Y27	Z27	X28	Y28	Z28	X29	Y29	Z29	X30	Y30	Z30	X31	Y31	Z31	X32	Y32	Z32	X33	Y33	Z33	

71	21.710000000000	837.510253335719	1015.715704814649	419.529721422038	1070.236738260811	1428.782014181905	243.881963913518	1144.749305993118	1362.646999133241	420.084820025134	1041.365720989079	1445.430960191184	578.402320465233	1031.518854347981	1496.987525601857	396.857047322100	1049.933281997272	951.511465947574	566.875560934109	1068.828796692539	958.802700340925	291.879659666716	1111.969873777392	765.272327987236	549.253163692498	1055.676180496434	652.046998316826	622.584863315377	1142.871789514342	604.199554545151	546.010295905718	1170.101499805698	525.453012913956	564.988300616825	1085.620114518412	738.677616541125	324.495105209903	987.112959563640	634.666139789945	253.018930640379	1055.464849808438	547.986474849525	320.595432439803	1045.686453487213	479.944728183122	328.348140235905	1014.943986559059	410.927595876737	318.182591446819	918.256073414446	303.996612874568	265.367378977273	957.287111025593	188.847393681837	336.148492228359	1156.059158186386	441.006268335101	578.062672991336	1105.275386218224	328.057089828584	644.749219214591	1177.797558099933	242.188104743345	595.917375836537	1092.381627583274	50.423913812040	572.873242872541	1253.247458092920	130.236195531052	609.980312622738	1178.793668402447	50.745581365251	644.427462413783	1379.949477431499	97.870609950963	632.128714499666	821.318647233516	38.981643683510	378.761921116473	892.253996248234	35.212889191306	295.642182934867	976.877214898186	95.583212372174	321.569811905179	1104.398039127713	42.031614880617	287.571919839135	1092.085852265327	1089.329264888263	100.428643788385	1302.771310780021	935.129522106269	130.372966022066	945.272923829978	1108.511570863683	694.008334482047	991.374617583534	852.836159874051	725.486353952325	
72	21.723428571429	838.353787367545	1014.723886755458	421.057223611628	1069.667693193982	1428.801981895437	246.581263437299	1144.391233017754	1362.472957494880	422.585399649598	1040.724978790216	1444.558092903401	581.056873039959	1030.670411067642	1496.511760239171	399.629485187523	1050.834326095219	950.504996987488	568.442261459442	1069.679487667374	958.477203997373	293.371375391958	1111.158100503107	762.828187878523	550.965998770860	1052.426666383467	649.530620005175	622.803629296514	1139.988591269353	601.764487015778	546.621506834617	1166.283940570147	523.714356549434	564.585506955327	1085.331593656892	737.638013510725	325.921970472573	986.160264745649	634.167467301145	254.043420034315	1053.776890618674	546.997692221728	321.623726793856	1043.518026028824	478.853045393333	329.134344522057	1012.192814743000	410.008754660332	318.893856110381	914.601481466025	303.917577255395	265.781957072026	952.657716005805	188.355875780583	336.398885096550	1153.147356008501	439.039363403072	577.570684689075	1102.657106796854	325.238358871587	642.810095335043	1176.764240916498	240.399028348915	594.230908408962	1093.944771306787	47.883733776952	568.743518202899	1253.612825364296	129.046591158169	608.605253573930	1179.249028990563	48.970388838296	641.536265260200	1380.111976076573	97.576225613546	632.109713861773	815.902245472434	38.919770821611	378.758648903692	886.820594035995	35.176222723118	295.644090297787	971.471370120240	95.558899068457	321.607465760789	1098.957366274903	41.963743799017	287.583153546266	1095.653112261457	1089.423015191690	103.800581487902	1308.085750676131	938.039632464825	135.335696049614	946.948820694142	1106.672438978717	695.956930740853	997.120188616179	851.489904768282	725.853144633411	
73	21.736857142857	839.426645225113	1013.523773788572	422.942356318701	1068.872275504720	1428.843994737924	249.507897847334	1143.964816957287	1362.355574611595	425.260899645723	1040.024910766423	1443.604204041794	583.956922069125	1029.617903502258	1495.967733322473	402.667122871121	1052.132331672287	949.446624729093	570.115662280390	1070.649459362928	958.137024901635	295.026394411543	1111.442443806356	760.794397323092	552.612480517749	1050.356633808255	647.058562570551	622.652357326729	1138.513734120730	599.694901093030	547.103760444628	1163.614527351482	521.736064391967	564.023029565739	1085.365480375967	736.538768523097	327.451986560629	985.583607244903	633.525002978562	255.246964009082	1052.596307310001	545.900149998955	322.777003076696	1041.933164723818	477.566732673311	330.027039247418	1009.853866502567	408.922080551152	319.737801182581	911.199115265324	303.818425404301	266.335805166204	948.140636458839	187.772414936473	336.713579399419	1150.470992298677	436.513792603691	576.674622650054	1098.955240565038	322.504916077817	640.350518658592	1173.421210017662	237.941765365756	591.948765783412	1090.788685934598	46.223450368280	564.092036732587	1250.031499533031	126.527228107199	606.402872419337	1174.900456432737	47.152654325960	638.136837386888	1375.868542589447	94.516646350325	631.440164771244	810.475747444097	38.803658604876	378.769211826033	881.389652822012	35.113213450413	295.668926913397	966.064842761777	95.519480134498	321.673417979974	1093.530733118556	41.868481192591	287.586860046941	1098.838933657123	1089.606864246575	107.316135765835	1312.821231502840	940.811093555861	140.359526612339	948.909500322341	1104.715933588641	698.267915859781	1003.626191378611	850.218694188039	726.611833041337	
74	21.750285714286	840.711464457924	1012.116290504673	425.167581377746	1067.883064794778	1428.874983548191	252.653679964472	1143.490136416171	1362.267807681195	428.113182241036	1039.282380646982	1442.556654339672	587.098459957208	1028.393058032857	1495.338988746627	405.959806947341	1053.807422281673	948.332399897988	571.898592544007	1071.735196260823	957.764879522286	296.844152887260	1112.776060684880	759.093843619996	554.181264437086	1049.442810975281	644.637998187937	622.183575857153	1138.349549595918	597.918587451711	547.441321150176	1162.008225158473	519.494498844040	563.247361895134	1085.732576052968	735.377036817967	329.061066468395	985.387853949739	632.724573709773	256.625426244523	1051.945864331076	544.681336370224	324.037153830030	1040.968216807507	476.065574835453	331.008992850723	1007.944019897889	407.657745369162	320.709453667889	908.061663073809	303.700562230540	267.041891534383	943.743779806315	187.097072921629	337.093780570193	1148.096103934288	433.475987420023	575.382814696194	1094.529345405887	319.809416030104	637.564773787471	1168.214244301359	234.830138075736	589.166375564853	1083.614125060030	45.163072707372	559.292511065914	1243.170054091885	122.843251229224	603.428025617301	1166.613188671332	45.263716305076	634.468490967496	1368.072415265812	89.147275341514	630.002395282213	805.037973807746	38.641009102301	378.794384838175	875.964223003875	35.023103916061	295.720686374333	960.664892552553	95.460287526723	321.770703090559	1088.127234609703	41.739375120042	287.578931641640	1101.584060715074	1089.844759885238	110.923603224836	1316.943761528314	943.423024178454	145.385305423835	951.124363429901	1102.642339443009	700.918316756315	1010.817955892152	849.042654640872	727.765943353664	
